<svg width="34" height="27" viewBox="0 0 34 27" fill="none" xmlns="http://www.w3.org/2000/svg">
<path d="M33.75 10.125V3.375C33.75 1.51875 32.2312 0 30.375 0H3.375C1.51875 0 0.016875 1.51875 0.016875 3.375V10.125C1.87312 10.125 3.375 11.6437 3.375 13.5C3.375 15.3562 1.87312 16.875 0 16.875V23.625C0 25.4812 1.51875 27 3.375 27H30.375C32.2312 27 33.75 25.4812 33.75 23.625V16.875C31.8937 16.875 30.375 15.3562 30.375 13.5C30.375 11.6437 31.8937 10.125 33.75 10.125ZM30.375 7.66124C28.3669 8.82562 27 11.0194 27 13.5C27 15.9806 28.3669 18.1744 30.375 19.3387V23.625H3.375V19.3387C5.38312 18.1744 6.74999 15.9806 6.74999 13.5C6.74999 11.0025 5.4 8.82562 3.39187 7.66124L3.375 3.375H30.375V7.66124ZM11.9306 20.25L16.875 17.0775L21.8194 20.25L20.3175 14.58L24.8569 10.8675L19.0012 10.5131L16.875 5.0625L14.7319 10.4962L8.87624 10.8506L13.4156 14.5631L11.9306 20.25Z" fill="#E4BE00"/>
</svg>
