<svg width="35" height="33" viewBox="0 0 35 33" fill="none" xmlns="http://www.w3.org/2000/svg">
<path d="M32.92 11.7701L22.8784 10.3107L18.3896 1.21041C18.267 0.961248 18.0653 0.759547 17.8161 0.636944C17.1912 0.328459 16.4319 0.58553 16.1194 1.21041L11.6306 10.3107L1.58903 11.7701C1.31218 11.8096 1.05907 11.9401 0.865277 12.1379C0.630994 12.3787 0.501893 12.7026 0.506342 13.0386C0.510792 13.3745 0.648428 13.695 0.889006 13.9295L8.15421 21.0127L6.43777 31.0148C6.39752 31.2474 6.42327 31.4867 6.51209 31.7055C6.60092 31.9243 6.74927 32.1138 6.94032 32.2526C7.13137 32.3913 7.35748 32.4738 7.59301 32.4906C7.82853 32.5074 8.06405 32.4578 8.27286 32.3476L17.2545 27.6254L26.2362 32.3476C26.4814 32.4781 26.7661 32.5216 27.039 32.4741C27.7272 32.3555 28.1899 31.7029 28.0712 31.0148L26.3548 21.0127L33.62 13.9295C33.8178 13.7357 33.9483 13.4826 33.9878 13.2057C34.0946 12.5136 33.6121 11.8729 32.92 11.7701Z" fill="#F2EE0F" stroke="black"/>
</svg>
