<svg width="28" height="21" viewBox="0 0 28 21" fill="none" xmlns="http://www.w3.org/2000/svg">
<path d="M25.0292 18.1117H12.083C11.9165 18.1117 11.7567 18.1779 11.6389 18.2956L9.52981 20.4047C9.50061 20.4339 9.46593 20.4571 9.42776 20.4729C9.38959 20.4888 9.34867 20.4969 9.30735 20.4969C9.26603 20.4969 9.22511 20.4888 9.18694 20.4729C9.14877 20.4571 9.11409 20.4339 9.08488 20.4047L6.97579 18.2956C6.85795 18.1779 6.69822 18.1117 6.53165 18.1117H2.38972C1.88936 18.1117 1.40949 17.9129 1.05568 17.5591C0.701869 17.2053 0.5031 16.7254 0.5031 16.225C0.5031 15.7247 0.701869 15.2448 1.05568 14.891C1.40949 14.5372 1.88936 14.3384 2.38972 14.3384H25.0292C25.5296 14.3384 26.0095 14.5372 26.3633 14.891C26.7171 15.2448 26.9158 15.7247 26.9158 16.225C26.9158 16.7254 26.7171 17.2053 26.3633 17.5591C26.0095 17.9129 25.5296 18.1117 25.0292 18.1117ZM3.0186 13.3951V13.3778C3.0186 9.05429 6.55602 6.79191 10.8795 6.79191H16.5394C20.8629 6.79191 24.4003 9.07158 24.4003 13.3951V13.3778M16.9325 0.503161L17.5173 5.5318L16.9325 0.503161Z" fill="#FFA048"/>
<path d="M3.0186 13.3951V13.3778C3.0186 9.05429 6.55602 6.79191 10.8795 6.79191H16.5394C20.8629 6.79191 24.4003 9.07158 24.4003 13.3951V13.3778M16.9325 0.503161L17.5173 5.5318M25.0292 18.1117H12.083C11.9165 18.1117 11.7567 18.1779 11.6389 18.2956L9.52981 20.4047C9.50061 20.4339 9.46593 20.4571 9.42776 20.4729C9.38959 20.4888 9.34867 20.4969 9.30735 20.4969C9.26603 20.4969 9.22511 20.4888 9.18694 20.4729C9.14877 20.4571 9.11409 20.4339 9.08488 20.4047L6.97579 18.2956C6.85795 18.1779 6.69822 18.1117 6.53165 18.1117H2.38972C1.88936 18.1117 1.40949 17.9129 1.05568 17.5591C0.701869 17.2053 0.5031 16.7254 0.5031 16.225C0.5031 15.7247 0.701869 15.2448 1.05568 14.891C1.40949 14.5372 1.88936 14.3384 2.38972 14.3384H25.0292C25.5296 14.3384 26.0095 14.5372 26.3633 14.891C26.7171 15.2448 26.9158 15.7247 26.9158 16.225C26.9158 16.7254 26.7171 17.2053 26.3633 17.5591C26.0095 17.9129 25.5296 18.1117 25.0292 18.1117Z" stroke="black" stroke-miterlimit="10" stroke-linecap="round"/>
</svg>
