<svg width="27" height="34" viewBox="0 0 27 34" fill="none" xmlns="http://www.w3.org/2000/svg">
<path d="M13.4998 16.8748C11.6436 16.8748 10.1249 15.3561 10.1249 13.4998C10.1249 11.6436 11.6436 10.1249 13.4998 10.1249C15.3561 10.1249 16.8748 11.6436 16.8748 13.4998C16.8748 15.3561 15.3561 16.8748 13.4998 16.8748ZM23.6247 13.8373C23.6247 7.71178 19.1529 3.37496 13.4998 3.37496C7.84678 3.37496 3.37496 7.71178 3.37496 13.8373C3.37496 17.786 6.66554 23.0172 13.4998 29.2609C20.3341 23.0172 23.6247 17.786 23.6247 13.8373ZM13.4998 0C20.5872 0 26.9997 5.43368 26.9997 13.8373C26.9997 19.4398 22.4941 26.0716 13.4998 33.7496C4.50557 26.0716 0 19.4398 0 13.8373C0 5.43368 6.41242 0 13.4998 0Z" fill="#09954F"/>
</svg>
