<svg width="28" height="13" viewBox="0 0 28 13" fill="none" xmlns="http://www.w3.org/2000/svg">
<path d="M23.7936 6.93578C23.7936 9.77351 22.1359 12.0734 19.2982 12.0734H8.70183C5.86411 12.0734 4.20642 9.77351 4.20642 6.93578M24.9174 0.513761C26.3359 0.513761 27.4862 1.95149 27.4862 3.72477C27.4862 5.49805 26.3359 6.93578 24.9174 6.93578H3.08257C1.66411 6.93578 0.513761 5.49805 0.513761 3.72477C0.513761 1.95149 1.66411 0.513761 3.08257 0.513761" fill="#FFA048"/>
<path d="M23.7936 6.93578C23.7936 9.77351 22.1359 12.0734 19.2982 12.0734H8.70183C5.86411 12.0734 4.20642 9.77351 4.20642 6.93578M24.9174 0.513761C26.3359 0.513761 27.4862 1.95149 27.4862 3.72477C27.4862 5.49805 26.3359 6.93578 24.9174 6.93578H3.08257C1.66411 6.93578 0.513761 5.49805 0.513761 3.72477C0.513761 1.95149 1.66411 0.513761 3.08257 0.513761" stroke="black" stroke-miterlimit="10" stroke-linecap="round"/>
</svg>
