<svg width="25" height="25" viewBox="0 0 25 25" fill="none" xmlns="http://www.w3.org/2000/svg">
<path d="M12.5 15.7895C15.4643 15.7895 17.8393 14.0263 17.8393 11.8421L17.8571 3.94737C17.8571 1.76316 15.4643 0 12.5 0C9.53571 0 7.14286 1.76316 7.14286 3.94737V11.8421C7.14286 14.0263 9.53571 15.7895 12.5 15.7895ZM21.9643 11.8421C21.9643 15.7895 17.4286 18.5526 12.5 18.5526C7.57143 18.5526 3.03571 15.7895 3.03571 11.8421H0C0 16.3421 4.85714 20.0395 10.7143 20.6842V25H14.2857V20.6842C20.1429 20.0526 25 16.3421 25 11.8421H21.9643Z" fill="white"/>
</svg>
